<mxfile host="app.diagrams.net" modified="2023-06-30T03:42:34.541Z" agent="Mozilla/5.0 (Windows NT 10.0; Win64; x64) AppleWebKit/537.36 (KHTML, like Gecko) Chrome/114.0.0.0 Safari/537.36" version="21.5.2" etag="yoPTQGw5XqSMA7tL4N8v" type="github">
  <diagram name="페이지-1" id="9FMUa-RnftWV9n2uGTBq">
    <mxGraphModel>
      <root>
        <mxCell id="0" />
        <mxCell id="1" parent="0" />
      </root>
    </mxGraphModel>
  </diagram>
</mxfile>
